<?xml version="1.0" encoding="utf-8"?>
<!-- Generator: Adobe Illustrator 22.0.0, SVG Export Plug-In . SVG Version: 6.00 Build 0)  -->
<svg version="1.1" id="Layer_1" xmlns="http://www.w3.org/2000/svg" xmlns:xlink="http://www.w3.org/1999/xlink" x="0px" y="0px"
	 viewBox="0 0 610.2 375.1" style="enable-background:new 0 0 610.2 375.1;" xml:space="preserve">
<metadata><?xpacket begin="﻿" id="W5M0MpCehiHzreSzNTczkc9d"?>
<x:xmpmeta xmlns:x="adobe:ns:meta/" x:xmptk="Adobe XMP Core 5.6-c143 79.161210, 2017/08/11-10:28:36        ">
   <rdf:RDF xmlns:rdf="http://www.w3.org/1999/02/22-rdf-syntax-ns#">
      <rdf:Description rdf:about=""/>
   </rdf:RDF>
</x:xmpmeta>
                                                                                                    
                                                                                                    
                                                                                                    
                                                                                                    
                                                                                                    
                                                                                                    
                                                                                                    
                                                                                                    
                                                                                                    
                                                                                                    
                                                                                                    
                                                                                                    
                                                                                                    
                                                                                                    
                                                                                                    
                                                                                                    
                                                                                                    
                                                                                                    
                                                                                                    
                                                                                                    
                           
<?xpacket end="w"?></metadata>
<style type="text/css">
	.st0{fill:#FFFFFF;stroke:#000000;stroke-width:9;stroke-miterlimit:10;}
	.st1{fill:#FFFFFF;stroke:#000000;stroke-width:6;stroke-miterlimit:10;}
</style>
<g>
	
		<image style="overflow:visible;opacity:0.75;" width="623" height="331" xlink:href="B9A5B3CC4632D3D6.png"  transform="matrix(1 0 0 1 -8 -9.9)">
	</image>
	<g>
		<g>
			<path class="st0" d="M89.2,270.6l-6.6-66.8c-3.9-1.4-8.3-2.2-13.3-2.5s-9.9-0.1-14.8,0.6c-0.9,7.6-1.5,15.4-1.8,23.4
				c-0.3,7.9-0.4,15.7-0.2,23.2s0.7,14.7,1.5,21.5s1.9,12.9,3.4,18.2c1.3,4.7,2.8,8.7,4.6,11.7c-1.8,0.5-3.7,0.8-5.8,0.9
				c-2,0.1-4-0.3-6-1.2c-1.9-0.9-3.8-2.5-5.4-4.6c-1.7-2.2-3.1-5.3-4.2-9.5c-1.1-4.1-1.9-9.2-2.4-15.2s-0.6-12.5-0.5-19.6
				s0.5-14.6,1.3-22.4c0.8-7.9,1.9-15.7,3.3-23.7c-2.8,0.9-5.4,2-7.8,3.3c-2.4,1.3-4.4,2.7-6,4.1c-1.6,1.5-2.8,3-3.6,4.6
				c-0.7,1.6-0.9,3.2-0.5,4.7c1.5,0.2,2.5,0.7,3,1.5s0.9,1.5,1.1,2.2c0.7,2.7,0.5,4.8-0.8,6.2s-2.7,2.4-4.3,2.8c-2,0.5-4,0.4-6-0.6
				c-2-0.9-3.5-3.1-4.4-6.5c-0.9-3.2-0.9-6.3,0-9.3s2.5-5.7,4.7-8.3c2.3-2.5,5.2-4.8,8.6-6.8c3.5-2,7.3-3.5,11.5-4.7
				c1-0.3,1.9-0.5,2.9-0.7s2-0.4,3.1-0.6c1.6-8.2,3.6-16.1,6-23.6c2.3-7.5,5-14.3,8-20.3s6.3-11,10-15.1s7.6-6.7,11.9-7.9
				c1.4-0.4,3.2-0.7,5.4-0.9c2.2-0.2,4.3-0.1,6.3,0.4l13.4,137L89.2,270.6z M55.4,195.4c4.9-0.3,9.8-0.3,14.5,0.2s8.7,1.3,12.1,2.4
				l-5.7-57.9c-2.5,0.8-4.7,2.8-6.8,6c-2.1,3.2-4,7.3-5.8,12.2s-3.4,10.6-4.8,16.9C57.4,181.5,56.3,188.3,55.4,195.4z"/>
			<path class="st0" d="M158.4,117.8l9.7,100.6c0.2,2.5,0.7,5.2,1.5,8.2c0.6,2,1.3,3.8,2.4,5.3c1,1.5,2.4,2,4.3,1.5
				c2.3-0.6,4.1-3,5.5-7.1s2.3-9.4,2.8-16.1l5.3-1.5c-0.2,8.1-0.9,14.6-2,19.6s-2.4,8.9-3.9,11.7s-3.2,4.9-5,6c-1.8,1.2-3.4,2-5,2.4
				c-3.1,0.9-6.1,0.2-8.9-1.9c-2.8-2.2-5.2-6.3-7.3-12.3c-0.9,5.5-2.8,10.4-5.7,14.9s-6.7,7.3-11.3,8.5c-2.3,0.6-4.7,0.7-7.1,0.3
				c-2.5-0.4-4.9-1.5-7.2-3.4c-2.4-1.8-4.5-4.4-6.6-7.8c-2-3.3-3.8-7.6-5.2-12.8c-1.1-4-1.9-8.5-2.5-13.3s-0.8-9.7-0.7-14.7
				c0.1-5,0.6-9.9,1.5-14.8c0.9-4.8,2.3-9.3,4.1-13.3c1.8-4,4.1-7.4,6.9-10.3c2.8-2.9,6.3-4.9,10.3-6c2.4-0.7,4.9-0.6,7.6,0
				c2.7,0.7,4.9,2.8,6.8,6.4l-4.3-43.8L158.4,117.8z M143.1,242.4c1.5-0.4,3-1.4,4.3-2.8c1.3-1.5,2.5-3.2,3.5-5.4
				c1-2.1,1.8-4.5,2.3-7.2s0.6-5.5,0.3-8.3l-4.2-42.3c-0.7-1.8-1.9-3.4-3.5-4.8c-1.6-1.3-3.6-1.7-5.8-1.1c-3.9,1.1-6.9,3.8-9,8.2
				s-3.5,9.4-4.2,15.1c-0.7,5.7-0.8,11.6-0.2,17.7c0.5,6.1,1.4,11.3,2.6,15.7c1.9,6.8,3.9,11.2,6.2,13.2
				C137.8,242.6,140.3,243.2,143.1,242.4z"/>
			<path class="st0" d="M227,137.2l6.1,63.3c0.2,2.5,0.7,5.2,1.5,8.2c0.6,2,1.3,3.8,2.4,5.3c1,1.5,2.4,2,4.3,1.5
				c2.3-0.6,4.1-3,5.5-7.1s2.3-9.4,2.8-16.1l5.3-1.5c-0.2,8.1-0.9,14.6-2,19.6s-2.4,8.9-3.9,11.7s-3.2,4.9-5,6c-1.8,1.2-3.4,2-5,2.4
				c-3.1,0.8-6,0.2-8.8-1.9c-2.8-2.1-5.3-6.1-7.3-12c-1.1,6.8-3,12-5.6,15.6c-2.7,3.6-5.6,5.8-8.9,6.7c-2.2,0.6-4.4,0.6-6.6,0
				c-2.2-0.6-4.3-1.7-6.3-3.3s-3.8-3.8-5.4-6.5c-1.6-2.7-2.9-5.9-3.9-9.6c-0.8-2.8-1.3-5.9-1.6-9.3l-5.9-59.8l14.5-4l6.1,63.3
				c0.1,2,0.5,4,1,6c0.9,3.4,2.3,5.8,4,7.1s3.4,1.7,5.3,1.2c2.8-0.8,5.1-3.2,7.1-7.4s2.7-9.5,2-15.9l-5.9-59.8L227,137.2z"/>
			<path class="st0" d="M254.5,91.4l9.6,100.6c0.2,2.5,0.7,5.2,1.5,8.2c0.6,2,1.3,3.8,2.4,5.3c1,1.5,2.4,2,4.3,1.5
				c2.3-0.6,4.1-3,5.5-7.1s2.3-9.4,2.8-16.1l5.3-1.5c-0.2,8.1-0.9,14.6-2,19.6s-2.4,8.9-3.9,11.7s-3.2,4.9-5,6c-1.8,1.2-3.4,2-5,2.4
				c-2.5,0.7-4.7,0.7-6.6,0.1c-1.9-0.6-3.6-1.7-5-3.2s-2.7-3.4-3.8-5.7s-2-4.7-2.7-7.5c-0.6-2.1-1.1-4.4-1.4-6.7
				c-0.4-2.3-0.7-4.6-0.9-6.8L240.3,98L254.5,91.4z"/>
			<path class="st0" d="M269.7,125.5l4.7-1.3L272,98.5l14.2-6.6l2.7,28.3l11-3l0.8,6.7l-11.2,3.1l5.5,56.7c0.1,1,0.2,2.2,0.3,3.7
				c0.1,1.5,0.4,2.9,0.8,4.2c0.6,2.1,1.5,4,2.7,5.5s2.9,2,5.1,1.4c2.6-0.7,4.8-3.2,6.6-7.4c1.8-4.2,3.1-9.6,3.8-16.3l5.3-1.5
				c-0.7,7.2-1.7,13.3-3,18.2s-2.8,9-4.4,12.1s-3.4,5.4-5.2,7s-3.7,2.5-5.4,3c-2.7,0.7-5,0.8-7,0.1s-3.8-1.8-5.3-3.3
				c-1.5-1.6-2.8-3.5-3.9-5.8s-2-4.7-2.7-7.2c-0.6-2.2-1.1-4.6-1.4-6.9c-0.3-2.4-0.6-4.5-0.8-6.4l-5.2-53.1l-4.7,1.3L269.7,125.5z"
				/>
			<path class="st0" d="M366.3,171.8c0.7,2.5,1.5,4.5,2.6,6c1,1.5,2.4,2,4.1,1.5c4.5-1.2,7.2-8.9,8.1-23.1l5.3-1.5
				c-0.2,8.1-0.9,14.7-2,19.7s-2.4,8.9-3.9,11.7s-3.2,4.8-4.8,5.9s-3.2,1.9-4.7,2.3c-5,1.4-9,0.4-12.2-2.9
				c-3.2-3.3-5.5-7.8-7.1-13.5c-1.1-3.9-1.8-8.1-2.3-12.6s-0.8-8.9-1.1-13.3c-0.3-4.4-0.6-8.6-0.9-12.7c-0.3-4-1-7.7-1.8-10.9
				c-0.8-3-1.9-5.2-3.2-6.8c-1.3-1.5-3.3-2-5.7-1.3c-6.1,1.7-9.7,9.5-10.7,23.4l5.8,60l-14.3,3.9L305,80.2l14.1-6.5l5,51.2
				c1-3.6,2.1-6.6,3.4-9s2.6-4.3,4-5.8s2.8-2.5,4.2-3.3c1.4-0.7,2.7-1.2,4-1.6c2.9-0.8,5.4-0.9,7.6-0.4s4.1,1.6,5.8,3.1
				c1.6,1.5,3,3.4,4.1,5.8c1.1,2.3,2,4.8,2.8,7.6c1.1,3.9,1.8,8.1,2.3,12.6s0.8,8.9,1.1,13.3c0.3,4.4,0.6,8.7,1,12.9
				C364.6,164.4,365.3,168.3,366.3,171.8z"/>
			<path class="st0" d="M401.4,88.4c5.7-1.6,10.5-0.3,14.3,3.8c3.8,4.1,7,10.7,9.6,19.8c8.5-2.3,15.3-8,20.5-17.1l2.6,4.4
				c-1.6,4.5-4.3,8.7-8.1,12.4c-3.7,3.8-8.1,6.8-13,9c1.6,7.8,2.5,15.3,2.7,22.3s-0.4,13.3-1.7,18.9c-1.3,5.6-3.4,10.3-6.3,14
				s-6.5,6.2-10.9,7.4c-3.1,0.9-6.2,1.2-9.2,0.9s-5.8-1.2-8.4-2.9s-5-4.2-7.1-7.4s-3.9-7.4-5.3-12.5c-0.9-3.4-1.8-7.4-2.5-11.9
				s-1.2-9.3-1.3-14.3c-0.1-5,0.1-10,0.8-14.9c0.6-5,1.9-9.6,3.7-13.9c1.8-4.3,4.3-8.1,7.5-11.2C392.4,92,396.4,89.8,401.4,88.4z
				 M412.9,168.4c2.1-0.6,3.9-2.1,5.5-4.5c1.5-2.4,2.7-5.5,3.4-9.4c0.7-3.9,1-8.5,0.9-13.7c-0.2-5.2-0.9-11.1-2.1-17.5
				c-2.4,0.7-4.1,0.4-5.2-0.8c-1.1-1.2-1.9-2.8-2.5-5c-0.8-3.1-0.9-5.5-0.1-7.1c0.8-1.7,2-2.9,3.8-3.6c-1.5-4-3.2-6.7-5.2-7.9
				c-1.9-1.3-4.1-1.6-6.5-0.9s-4.4,2.1-6,4.3c-1.6,2.2-2.9,4.9-3.8,8s-1.6,6.6-1.9,10.5s-0.4,7.7-0.3,11.6c0.1,3.9,0.5,7.7,1.1,11.5
				c0.6,3.7,1.3,7.1,2.1,10c1.7,6.2,3.8,10.4,6.4,12.8C404.9,169.1,408.4,169.6,412.9,168.4z"/>
			<path class="st0" d="M461.4,71.9c5.7-1.6,10.5-0.3,14.3,3.8c3.8,4.1,7,10.7,9.6,19.8c8.5-2.3,15.3-8,20.5-17.1l2.6,4.4
				c-1.6,4.5-4.3,8.7-8.1,12.4c-3.7,3.8-8.1,6.8-13,9c1.6,7.8,2.5,15.3,2.7,22.3c0.2,7-0.4,13.3-1.7,18.9c-1.3,5.6-3.4,10.3-6.3,14
				s-6.5,6.2-10.9,7.4c-3.1,0.9-6.2,1.2-9.2,0.9s-5.8-1.2-8.4-2.9s-5-4.2-7.1-7.4s-3.9-7.4-5.3-12.5c-0.9-3.4-1.8-7.4-2.5-11.9
				s-1.2-9.3-1.3-14.3c-0.1-5,0.1-10,0.8-14.9c0.6-5,1.9-9.6,3.7-13.9c1.8-4.3,4.3-8.1,7.5-11.2C452.4,75.6,456.4,73.3,461.4,71.9z
				 M472.9,152c2.1-0.6,3.9-2.1,5.5-4.5c1.5-2.4,2.7-5.5,3.4-9.4c0.7-3.9,1-8.5,0.9-13.7c-0.2-5.2-0.9-11.1-2.1-17.5
				c-2.4,0.7-4.1,0.4-5.2-0.8c-1.1-1.2-1.9-2.8-2.5-5c-0.8-3.1-0.9-5.5-0.1-7.1c0.8-1.7,2-2.9,3.8-3.6c-1.5-4-3.2-6.7-5.2-7.9
				c-1.9-1.3-4.1-1.6-6.5-0.9s-4.4,2.1-6,4.3c-1.6,2.2-2.9,4.9-3.8,8s-1.6,6.6-1.9,10.5s-0.4,7.7-0.3,11.6s0.5,7.7,1.1,11.5
				c0.6,3.7,1.3,7.1,2.1,10c1.7,6.2,3.8,10.4,6.4,12.8C464.9,152.6,468.4,153.2,472.9,152z"/>
			<path class="st0" d="M544.3,11.9l9.7,100.6c0.2,1.4,0.4,2.7,0.6,4c0.3,1.3,0.6,2.6,0.9,3.8c0.7,2.5,1.6,4.4,2.7,5.8
				c1.1,1.3,2.7,1.8,4.6,1.2c0.7-0.2,1.3-0.4,2-0.7c0.7-0.3,1.4-0.8,2.3-1.6c0.4,6-0.1,10.3-1.4,12.8c-1.4,2.5-3.3,4.2-5.9,4.9
				c-3.1,0.9-6.1,0.2-8.9-1.9c-2.8-2.2-5.2-6.3-7.3-12.3c-0.9,5.5-2.8,10.4-5.7,14.9s-6.7,7.3-11.3,8.5c-2.3,0.6-4.7,0.7-7.1,0.3
				c-2.5-0.4-4.9-1.5-7.2-3.4c-2.4-1.8-4.5-4.4-6.6-7.8c-2-3.3-3.8-7.6-5.2-12.8c-1.1-4-1.9-8.5-2.5-13.3s-0.8-9.7-0.7-14.7
				c0.1-5,0.6-9.9,1.5-14.8c0.9-4.8,2.3-9.3,4.1-13.3c1.8-4,4.1-7.4,6.9-10.3c2.8-2.9,6.3-4.9,10.3-6c2.4-0.7,4.9-0.6,7.6,0
				c2.7,0.7,4.9,2.8,6.8,6.4l-4.3-43.8L544.3,11.9z M529,136.6c1.4-0.4,2.8-1.3,4.2-2.8s2.6-3.3,3.6-5.4c1-2.1,1.8-4.5,2.3-7.2
				s0.6-5.5,0.3-8.3l-4.2-42.3c-0.7-1.8-1.9-3.4-3.5-4.8c-1.7-1.3-3.6-1.7-5.8-1.1c-3.9,1.1-6.9,3.8-9,8.2
				c-2.1,4.4-3.5,9.4-4.2,15.1s-0.8,11.6-0.2,17.7c0.5,6.1,1.4,11.3,2.6,15.7c1.9,6.8,3.9,11.2,6.2,13.2
				C523.7,136.7,526.2,137.3,529,136.6z"/>
			<path class="st0" d="M574.9,109.6c-0.9-3.2-0.7-6.2,0.4-9.1c1.2-2.9,3.1-4.7,5.8-5.4c2.6-0.7,5.1-0.1,7.7,1.7
				c2.6,1.8,4.3,4.4,5.2,7.6c0.9,3.3,0.7,6.4-0.6,9.1c-1.3,2.8-3.2,4.5-5.8,5.2c-2.7,0.7-5.2,0.2-7.7-1.5
				C577.4,115.5,575.8,113,574.9,109.6z M570,64.9c-0.9-3.2-0.7-6.2,0.4-9.1c1.2-2.9,3.1-4.7,5.8-5.4c2.6-0.7,5.1-0.1,7.7,1.7
				c2.6,1.8,4.3,4.4,5.2,7.6c0.9,3.3,0.7,6.4-0.6,9.1c-1.3,2.8-3.2,4.5-5.8,5.2c-2.7,0.7-5.2,0.2-7.7-1.5
				C572.5,70.8,570.9,68.2,570,64.9z"/>
		</g>
	</g>
</g>
<g>
	
		<image style="overflow:visible;opacity:0.75;" width="546" height="241" xlink:href="B9A5B3CC4632D3DA.png"  transform="matrix(1 0 0 1 58 141.1)">
	</image>
	<g>
		<g>
			<path class="st1" d="M155.6,336.3c0.4,1.4,0.9,2.6,1.5,3.5s1.4,1.2,2.4,0.9c2.6-0.7,4.2-5.2,4.7-13.4l3.1-0.8
				c-0.1,4.7-0.5,8.5-1.2,11.4c-0.6,2.9-1.4,5.2-2.3,6.8c-0.9,1.6-1.8,2.8-2.8,3.4c-1,0.7-1.9,1.1-2.7,1.4c-2.9,0.8-5.2,0.2-7.1-1.7
				c-1.8-1.9-3.2-4.5-4.1-7.8c-0.6-2.3-1.1-4.7-1.3-7.3c-0.3-2.6-0.5-5.1-0.6-7.7c-0.2-2.5-0.3-5-0.5-7.3s-0.6-4.4-1.1-6.3
				c-0.5-1.7-1.1-3-1.9-3.9c-0.8-0.9-1.9-1.1-3.3-0.7c-3.5,1-5.6,5.5-6.2,13.5l3.4,34.7l-8.3,2.3l-6.7-69.5
				c-1.8,0.3-3.7,0.6-5.8,0.9c-2,0.2-4.2,0.4-6.4,0.5l6.9,71.4l-9.1,2.5l-7-72.3c-0.6,0.1-1.1,0.2-1.7,0.3c-0.5,0.1-1.1,0.2-1.6,0.4
				c-2.8,0.8-5.1,1.8-7.2,3c-2,1.3-3.5,2.9-4.6,4.8c-1.1,2-1.6,4.3-1.7,7.1c-0.1,2.8,0.4,6.1,1.5,10c0.7,2.6,1.4,4.5,2.1,5.6
				s1.3,2,1.9,2.6c-1.1,0.3-2.2,0.4-3.2,0.3s-2-0.5-2.8-1.1c-0.9-0.6-1.7-1.6-2.5-2.9s-1.4-2.9-2-4.9c-0.9-3.3-1.3-6.6-1.1-10
				c0.2-3.4,1.1-6.6,2.7-9.7s4-5.9,7.2-8.4s7.4-4.5,12.7-5.9c2.2-0.6,4.2-1,5.9-1.2c1.7-0.2,3.4-0.4,4.9-0.5s3.1-0.2,4.5-0.4
				c1.5-0.1,3.1-0.5,4.8-0.9c2.3-0.6,4.3-1.2,5.8-1.8c1.5-0.6,2.8-1.3,3.7-2.1c-0.1,1.7-0.2,3.4-0.2,5.2c0,1.8,0.1,4,0.3,6.5
				s0.5,5.6,0.9,9.2s0.9,8,1.5,13.1c0.6-2.1,1.2-3.8,2-5.2c0.7-1.4,1.5-2.5,2.3-3.4c0.8-0.8,1.6-1.5,2.4-1.9
				c0.8-0.4,1.6-0.7,2.3-0.9c1.7-0.5,3.1-0.5,4.4-0.2c1.3,0.3,2.4,0.9,3.3,1.8c1,0.9,1.8,2,2.4,3.3c0.6,1.3,1.2,2.8,1.6,4.4
				c0.6,2.3,1.1,4.7,1.3,7.3c0.3,2.6,0.5,5.1,0.6,7.7c0.2,2.5,0.4,5,0.6,7.5C154.6,332,155,334.2,155.6,336.3z"/>
			<path class="st1" d="M186.9,296.3c1.6,5.8,1.1,11.1-1.6,15.7c-2.7,4.6-7.1,8.2-13.3,10.8c0.1,0.6,0.2,1.1,0.4,1.6
				c0.1,0.5,0.3,1,0.4,1.6c1,3.5,2.2,5.9,3.7,7.3s3.6,1.7,6.2,0.9c3.7-1,6.6-3.6,8.5-7.6c0.4,2.6,0.3,4.9-0.1,6.8
				c-0.4,1.9-1.1,3.5-2.1,4.8s-2.1,2.3-3.6,3.1c-1.4,0.8-3,1.4-4.6,1.9c-1.6,0.4-3.2,0.6-4.9,0.3c-1.6-0.2-3.2-0.8-4.7-1.8
				s-2.9-2.4-4.1-4.3c-1.3-1.9-2.3-4.3-3.1-7.3c-0.5-1.9-1-4.2-1.3-6.8c-0.4-2.6-0.6-5.4-0.6-8.2c0-2.9,0.1-5.8,0.6-8.7
				c0.4-2.9,1.1-5.6,2.1-8.1c1-2.4,2.3-4.6,4-6.4s3.8-3,6.3-3.7c1.2-0.3,2.3-0.5,3.4-0.4c1.1,0,2.2,0.3,3.3,0.9c1,0.6,2,1.5,2.9,2.7
				C185.6,292.5,186.4,294.2,186.9,296.3z M177.3,293c-1.5,0.4-2.8,1.5-3.7,3.2c-1,1.7-1.6,3.8-2.1,6.2c-0.4,2.4-0.7,5-0.7,7.9
				c0,2.8,0.1,5.7,0.5,8.4c4.4-2.2,7.5-5.2,9.4-9.1s2.2-8.2,0.9-12.9c-0.3-1.2-0.8-2.2-1.4-3C179.6,292.9,178.6,292.6,177.3,293z"/>
			<path class="st1" d="M253.8,276.2l3.8,40.6c0.4,4.1,0.5,7.9,0.3,11.4s-0.8,6.5-1.8,9.2c-1,2.6-2.4,4.9-4.3,6.7
				c-1.9,1.8-4.2,3.1-7.1,3.9c-2.5,0.7-4.7,0.8-6.5,0.5c-1.9-0.4-3.5-1.1-4.8-2.1c-1.4-1-2.5-2.3-3.3-3.9c-0.9-1.6-1.6-3.2-2-5
				c-0.5-1.8-0.8-3.6-0.8-5.4c-0.1-1.8,0.1-3.5,0.7-5.1c0.5-1.6,1.4-3,2.5-4.2c1.2-1.2,2.8-2.1,4.8-2.7c0.6-0.2,1.3-0.3,2.1-0.4
				c0.9-0.1,1.7,0,2.6,0.2c0.9,0.2,1.7,0.8,2.5,1.5c0.8,0.8,1.4,2,1.8,3.5c0.3,1.2,0.5,2.7,0.6,4.3c-1.1-1.1-2.3-1.8-3.4-2.2
				c-1.2-0.3-2.3-0.4-3.3-0.1c-1.7,0.5-2.9,1.6-3.8,3.6c-0.9,1.9-0.9,4.2-0.2,6.8c0.7,2.5,1.9,4.4,3.6,5.6c1.7,1.2,3.5,1.5,5.4,1
				c0.9-0.3,1.8-0.7,2.7-1.5c0.8-0.7,1.6-1.7,2.2-3c0.6-1.3,1.1-2.9,1.3-4.9c0.3-2,0.3-4.3,0-7.2l-2.4-25.2c-1,3.6-2.6,6.5-4.6,8.7
				s-4.4,3.7-7.2,4.5c-2.4,0.7-4.8,0.7-7.2,0.1c-2.3-0.6-4.5-1.8-6.6-3.6c-2-1.8-3.9-4.1-5.5-7.1c-1.7-2.9-3.1-6.4-4.2-10.5
				c-1.4-5.2-2.1-10.5-2.1-15.7c0-5.3,0.8-10.1,2.4-14.6c1.5-4.5,3.8-8.3,6.9-11.6c3.1-3.2,6.9-5.5,11.5-6.7
				c1.9-0.5,3.9-0.8,5.9-0.8s3.9,0.3,5.7,1s3.3,1.8,4.7,3.4c1.4,1.6,2.4,3.7,3.2,6.4c0.7,2.4,0.8,4.6,0.4,6.7
				c-0.4,2.1-1.6,3.4-3.7,4c-0.3,0.1-0.8,0.2-1.3,0.2c-0.5,0.1-1.1,0.1-1.6,0c-0.6-0.1-1.2-0.2-1.8-0.4c-0.6-0.2-1.2-0.5-1.7-1
				c0.2,0,0.5-0.3,0.9-0.6c0.4-0.4,0.8-1,1.2-1.8s0.7-1.9,0.8-3.1c0.1-1.3,0-2.8-0.5-4.6c-0.7-2.5-1.8-4.4-3.2-5.5
				c-1.5-1.1-3.3-1.4-5.6-0.7c-3.1,0.8-5.7,2.7-7.8,5.6s-3.6,6.4-4.7,10.4c-1,4-1.5,8.4-1.4,13.2c0.1,4.7,0.7,9.4,2,13.9
				c1.5,5.4,3.5,9.5,6.1,12.3c2.6,2.9,5.5,3.9,8.7,3c3.5-1,6-3.9,7.5-8.8s2.1-11.7,1.6-20.3L253.8,276.2z"/>
			<path class="st1" d="M290.3,257.1l3.6,36.7c0.1,1.5,0.4,3,0.9,4.7c0.3,1.2,0.8,2.2,1.4,3.1s1.4,1.2,2.5,0.9
				c1.3-0.4,2.4-1.7,3.2-4.1c0.8-2.4,1.3-5.5,1.6-9.3l3.1-0.8c-0.1,4.7-0.5,8.5-1.2,11.3c-0.6,2.9-1.4,5.1-2.3,6.8
				c-0.9,1.6-1.8,2.8-2.9,3.5c-1,0.7-2,1.2-2.9,1.4c-1.8,0.5-3.5,0.1-5.2-1.1c-1.6-1.3-3-3.6-4.2-7.1c-0.5,3.2-1.6,6-3.3,8.6
				c-1.7,2.6-3.9,4.2-6.5,4.9c-1.3,0.4-2.7,0.4-4.1,0.2c-1.4-0.2-2.8-0.9-4.2-2c-1.4-1.1-2.6-2.6-3.8-4.5c-1.2-1.9-2.2-4.4-3-7.4
				c-0.6-2.3-1.1-4.9-1.4-7.7c-0.3-2.8-0.5-5.6-0.4-8.5c0-2.9,0.3-5.7,0.9-8.5c0.5-2.8,1.3-5.4,2.4-7.7c1-2.3,2.4-4.3,4-6
				c1.7-1.7,3.6-2.8,6-3.5c1.3-0.4,2.8-0.4,4.4,0s2.9,1.6,3.9,3.6l-0.5-5.2L290.3,257.1z M279.3,307.8c0.9-0.2,1.7-0.8,2.5-1.6
				c0.8-0.8,1.5-1.9,2-3.1c0.6-1.2,1-2.6,1.3-4.2s0.4-3.2,0.2-4.8l-2.4-24.5c-0.5-1.1-1.2-2.1-2.1-2.8c-0.9-0.7-2-0.9-3.3-0.6
				c-2.3,0.6-4,2.2-5.2,4.7s-2,5.5-2.4,8.7c-0.4,3.3-0.5,6.7-0.1,10.2c0.3,3.5,0.8,6.6,1.5,9.1c1.1,3.9,2.3,6.5,3.6,7.6
				C276.2,307.8,277.7,308.2,279.3,307.8z"/>
			<path class="st1" d="M352.2,282.3c0.4,1.4,0.9,2.6,1.5,3.5s1.4,1.2,2.4,0.9c2.6-0.7,4.2-5.2,4.7-13.4l3.1-0.8
				c-0.1,4.7-0.5,8.5-1.2,11.4c-0.6,2.9-1.4,5.2-2.3,6.8c-0.9,1.6-1.8,2.8-2.8,3.4c-1,0.7-1.9,1.1-2.7,1.4c-2.9,0.8-5.2,0.2-7.1-1.7
				c-1.8-1.9-3.2-4.5-4.1-7.8c-0.6-2.3-1.1-4.7-1.3-7.3c-0.3-2.6-0.5-5.1-0.6-7.7c-0.2-2.5-0.3-5-0.5-7.3s-0.6-4.4-1.1-6.3
				c-0.5-1.7-1.1-3-1.9-3.9s-1.9-1.1-3.3-0.7c-1.8,0.5-3,1.8-3.8,3.9s-1.3,5.3-1.6,9.4l3.4,34.7l-8.4,2.3l-3.6-36
				c-0.1-1-0.2-1.9-0.4-2.7c-0.2-0.8-0.3-1.5-0.5-2.1c-0.5-1.9-1.2-3.2-2-3.8c-0.8-0.6-1.7-0.7-2.8-0.5c-1.8,0.5-3,1.8-3.8,4
				c-0.7,2.2-1.3,5.3-1.6,9.3l3.4,34.7l-8.3,2.3l-5.3-53.9l8.4-2.3l0.6,6.9c1.1-3.6,2.4-6.1,3.9-7.4c1.5-1.3,3-2.2,4.4-2.5
				c2.8-0.8,5-0.5,6.7,0.8s3.1,3.1,4,5.5c0.5-2.2,1.1-4,1.8-5.4c0.7-1.4,1.5-2.6,2.3-3.4c0.8-0.9,1.6-1.5,2.4-1.9s1.6-0.7,2.4-0.9
				c1.7-0.5,3.1-0.5,4.4-0.2s2.4,0.9,3.3,1.8c1,0.9,1.8,2,2.4,3.3s1.2,2.8,1.6,4.4c0.6,2.3,1.1,4.7,1.3,7.3c0.3,2.6,0.5,5.1,0.6,7.7
				c0.2,2.5,0.4,5,0.6,7.5C351.2,278,351.6,280.3,352.2,282.3z"/>
			<path class="st1" d="M383.6,242.4c1.6,5.8,1.1,11.1-1.6,15.7s-7.1,8.2-13.3,10.8c0.1,0.6,0.2,1.1,0.4,1.6c0.1,0.5,0.3,1,0.4,1.6
				c1,3.5,2.2,5.9,3.7,7.3s3.6,1.7,6.2,0.9c3.7-1,6.6-3.6,8.5-7.6c0.4,2.6,0.3,4.9-0.1,6.8s-1.1,3.5-2.1,4.8s-2.1,2.3-3.6,3.1
				c-1.4,0.8-3,1.4-4.6,1.9c-1.6,0.4-3.2,0.6-4.9,0.3c-1.6-0.2-3.2-0.8-4.7-1.8s-2.9-2.4-4.1-4.3c-1.3-1.9-2.3-4.3-3.1-7.3
				c-0.5-1.9-1-4.2-1.3-6.8c-0.4-2.6-0.6-5.4-0.6-8.2c0-2.9,0.1-5.8,0.6-8.7c0.4-2.9,1.1-5.6,2.1-8.1c1-2.4,2.3-4.6,4-6.4
				c1.7-1.8,3.8-3,6.3-3.7c1.2-0.3,2.3-0.5,3.4-0.4c1.1,0,2.2,0.3,3.3,0.9c1,0.6,2,1.5,2.9,2.7C382.2,238.6,383,240.3,383.6,242.4z
				 M373.9,239.1c-1.5,0.4-2.8,1.5-3.7,3.2c-1,1.7-1.6,3.8-2.1,6.2c-0.4,2.4-0.7,5-0.7,7.9c0,2.8,0.1,5.7,0.5,8.4
				c4.4-2.2,7.5-5.2,9.4-9.1s2.2-8.2,0.9-12.9c-0.3-1.2-0.8-2.2-1.4-3C376.2,238.9,375.2,238.7,373.9,239.1z"/>
			<path class="st1" d="M422.5,220.3c3.3-0.9,6.1-0.2,8.3,2.2c2.2,2.4,4.1,6.2,5.6,11.5c4.9-1.3,8.9-4.7,11.9-9.9l1.5,2.6
				c-0.9,2.6-2.5,5-4.7,7.2s-4.7,3.9-7.5,5.2c0.9,4.5,1.5,8.8,1.6,12.9c0.1,4.1-0.2,7.7-1,11c-0.8,3.2-2,5.9-3.7,8.1
				s-3.8,3.6-6.3,4.3c-1.8,0.5-3.6,0.7-5.3,0.5c-1.7-0.2-3.4-0.7-4.9-1.7s-2.9-2.4-4.1-4.3s-2.2-4.3-3.1-7.2c-0.5-2-1-4.3-1.5-6.9
				c-0.4-2.6-0.7-5.4-0.8-8.3c-0.1-2.9,0.1-5.8,0.4-8.6c0.4-2.9,1.1-5.6,2.2-8.1s2.5-4.7,4.3-6.5S419.6,221.1,422.5,220.3z
				 M429.2,266.6c1.2-0.3,2.3-1.2,3.2-2.6c0.9-1.4,1.6-3.2,2-5.5s0.6-4.9,0.5-7.9s-0.5-6.4-1.2-10.1c-1.4,0.4-2.4,0.2-3-0.4
				c-0.6-0.7-1.1-1.6-1.5-2.9c-0.5-1.8-0.5-3.2-0.1-4.1c0.4-1,1.2-1.7,2.2-2.1c-0.9-2.3-1.9-3.9-3-4.6c-1.1-0.7-2.4-0.9-3.8-0.5
				s-2.5,1.2-3.5,2.5c-0.9,1.3-1.7,2.8-2.2,4.6s-0.9,3.8-1.1,6.1c-0.2,2.2-0.2,4.5-0.2,6.7c0.1,2.3,0.3,4.5,0.6,6.6
				c0.3,2.2,0.7,4.1,1.2,5.8c1,3.6,2.2,6,3.7,7.4C424.5,267,426.6,267.4,429.2,266.6z"/>
			<path class="st1" d="M450.3,213.2l6.6-1.8l0.4,3.9l-6.7,1.8l5.8,58.7c0.4,3.9,0.5,7,0.4,9.5s-0.5,4.5-1,6
				c-0.6,1.5-1.3,2.7-2.3,3.4c-1,0.7-2.2,1.3-3.5,1.7c-2.5,0.7-4.9,0.6-7-0.3c-2.2-0.9-3.7-3.1-4.6-6.4c-0.5-1.7-0.5-3.4-0.1-5.1
				s1.1-3.4,2-5c0.9-1.7,2-3.2,3.3-4.7s2.6-2.8,3.9-4l-6.1-61.9c-0.2-2.2-0.4-4.4-0.4-6.9c0-2.4,0.3-4.7,0.9-6.9s1.6-4.2,3.1-5.9
				c1.4-1.8,3.5-3,6.2-3.7c3.2-0.9,5.9-0.4,8.1,1.5s3.8,4.4,4.7,7.7c0.3,1.2,0.6,2.4,0.7,3.6l-3.3,0.9c0-0.7-0.2-1.6-0.4-2.5
				c-0.4-1.6-1.2-2.9-2.2-4.1c-1-1.2-2.3-1.5-3.8-1.1s-2.6,1.1-3.4,2c-0.8,1-1.3,2.1-1.7,3.6c-0.3,1.4-0.5,3.1-0.4,4.9
				c0,1.9,0.2,3.9,0.4,6.2L450.3,213.2z M445.8,291.8c1.5-0.4,2.4-1.8,2.7-4.3c0.2-2.4,0.2-5.5-0.2-9.2l-0.3-3.5
				c-2.6,2.5-4.4,4.9-5.5,7.4c-1.1,2.4-1.3,4.6-0.8,6.4c0.3,1.2,0.8,2.1,1.6,2.7C443.9,291.9,444.8,292,445.8,291.8z"/>
			<path class="st1" d="M510.3,250c2,0.1,4.2,0.6,6.5,1.4c2.3,0.8,4.6,1.6,7,2.4c2.4,0.8,4.8,1.5,7.2,1.9s4.8,0.3,7.2-0.3
				c1-0.3,2.1-0.7,3.2-1.2c1.1-0.5,2.2-1.3,3.2-2.3c0.7,4.4,0.7,8.1-0.1,10.9c-0.8,2.8-2.6,4.6-5.4,5.3c-1.4,0.4-3,0.3-4.8-0.3
				c-1.8-0.6-3.6-1.4-5.6-2.4s-4-2.2-6.2-3.5c-2.1-1.3-4.3-2.4-6.4-3.4c-2.1-1-4.3-1.7-6.4-2.2s-4.2-0.5-6.2,0.1
				c-0.3,0.1-0.7,0.2-1,0.3c-0.3,0.1-0.6,0.2-0.9,0.4l-7.5-76c-4.2,2.7-7.3,6.4-9,11.2c-1.8,4.7-1.8,10.1-0.2,16.1
				c0.7,2.4,1.3,4.1,2,5c0.7,1,1.4,1.7,2.1,2.3c-2.8,0.8-5.1,0.6-7.1-0.3c-2-1-3.4-3.2-4.4-6.7c-1-3.6-1.1-7.3-0.2-11.1
				c0.8-3.8,2.3-7.3,4.4-10.6s4.6-6.1,7.7-8.5c3-2.4,6.3-4.1,9.7-5c0.6-0.2,1.2-0.3,1.8-0.4c0.6-0.1,1.1-0.2,1.7-0.3L510.3,250z"/>
			<path class="st1" d="M525.2,192.7l3.6,36.7c0.1,1.4,0.4,3,0.9,4.7c0.3,1.2,0.8,2.2,1.4,3.1c0.6,0.9,1.4,1.2,2.5,0.9
				c1.3-0.4,2.4-1.7,3.2-4.1c0.8-2.4,1.3-5.5,1.6-9.3l3.1-0.8c-0.1,4.7-0.5,8.5-1.2,11.3c-0.6,2.9-1.4,5.1-2.3,6.8
				c-0.9,1.6-1.8,2.8-2.9,3.5c-1,0.7-2,1.2-2.9,1.4c-1.4,0.4-2.7,0.4-3.8,0.1c-1.1-0.4-2.1-1-2.9-1.9c-0.8-0.9-1.6-2-2.2-3.3
				c-0.6-1.3-1.2-2.7-1.6-4.3c-0.3-1.2-0.6-2.5-0.8-3.9c-0.2-1.3-0.4-2.7-0.5-4L517,195L525.2,192.7z M513.4,180
				c-0.5-1.9-0.4-3.6,0.2-5.3c0.7-1.7,1.8-2.7,3.3-3.1c1.5-0.4,3-0.1,4.5,1s2.5,2.5,3,4.4s0.4,3.7-0.3,5.3s-1.9,2.6-3.4,3
				s-3,0.1-4.4-0.9C514.9,183.4,513.9,181.9,513.4,180z"/>
			<path class="st1" d="M543.1,187.8l6.6-1.8l0.4,3.9l-6.7,1.8l5.8,58.7c0.4,3.9,0.5,7,0.4,9.5s-0.5,4.5-1,6
				c-0.6,1.5-1.3,2.7-2.3,3.4c-1,0.7-2.2,1.3-3.5,1.7c-2.5,0.7-4.9,0.6-7-0.3c-2.2-0.9-3.7-3.1-4.6-6.4c-0.5-1.7-0.5-3.4-0.1-5.1
				s1.1-3.4,2-5c0.9-1.7,2-3.2,3.3-4.7s2.6-2.8,3.9-4l-6.1-61.9c-0.2-2.2-0.4-4.4-0.4-6.9c0-2.4,0.3-4.7,0.9-6.9
				c0.6-2.2,1.6-4.2,3.1-5.9c1.4-1.8,3.5-3,6.2-3.7c3.2-0.9,5.9-0.4,8.1,1.5c2.2,1.9,3.8,4.4,4.7,7.7c0.3,1.2,0.6,2.4,0.7,3.6
				l-3.3,0.9c0-0.7-0.2-1.6-0.4-2.5c-0.4-1.6-1.2-2.9-2.2-4.1c-1-1.2-2.3-1.5-3.8-1.1s-2.6,1.1-3.4,2c-0.8,1-1.3,2.1-1.7,3.6
				c-0.3,1.4-0.5,3.1-0.4,4.9c0,1.9,0.2,3.9,0.4,6.2L543.1,187.8z M538.5,266.3c1.5-0.4,2.4-1.8,2.7-4.3c0.2-2.4,0.2-5.5-0.2-9.2
				l-0.3-3.5c-2.6,2.5-4.4,4.9-5.5,7.4c-1.1,2.4-1.3,4.6-0.8,6.4c0.3,1.2,0.8,2.1,1.6,2.7C536.7,266.4,537.5,266.6,538.5,266.3z"/>
			<path class="st1" d="M580.8,188.3c1.6,5.8,1.1,11.1-1.6,15.7c-2.7,4.6-7.1,8.2-13.3,10.8c0.1,0.6,0.2,1.1,0.4,1.6
				c0.1,0.5,0.3,1,0.4,1.6c1,3.5,2.2,5.9,3.7,7.3c1.5,1.4,3.6,1.7,6.2,0.9c3.7-1,6.6-3.6,8.5-7.6c0.4,2.6,0.3,4.9-0.1,6.8
				c-0.4,1.9-1.1,3.5-2.1,4.8s-2.1,2.3-3.6,3.1c-1.4,0.8-3,1.4-4.6,1.9c-1.6,0.4-3.2,0.6-4.9,0.3c-1.6-0.2-3.2-0.8-4.7-1.8
				s-2.9-2.4-4.1-4.3c-1.3-1.9-2.3-4.3-3.1-7.3c-0.5-1.9-1-4.2-1.3-6.8c-0.4-2.6-0.6-5.4-0.6-8.2c0-2.9,0.1-5.8,0.6-8.7
				c0.4-2.9,1.1-5.6,2.1-8.1c1-2.4,2.3-4.6,4-6.4s3.8-3,6.3-3.7c1.2-0.3,2.3-0.5,3.4-0.4c1.1,0,2.2,0.3,3.3,0.9c1,0.6,2,1.5,2.9,2.7
				C579.5,184.5,580.3,186.1,580.8,188.3z M571.2,184.9c-1.5,0.4-2.8,1.5-3.7,3.2c-1,1.7-1.6,3.8-2.1,6.2c-0.4,2.4-0.7,5-0.7,7.9
				c0,2.8,0.1,5.7,0.5,8.4c4.4-2.2,7.5-5.2,9.4-9.1c1.9-3.9,2.2-8.2,0.9-12.9c-0.3-1.2-0.8-2.2-1.4-3
				C573.5,184.8,572.5,184.6,571.2,184.9z"/>
		</g>
	</g>
</g>
</svg>
